HIERARCHY
ROOT Hips
{
	OFFSET 0.000000 0.000000 0.000000 
	CHANNELS 6 Xposition Yposition Zposition Zrotation Yrotation Xrotation
	JOINT LHipJoint
	{
		OFFSET 0.000000 0.000000 0.000000 
		CHANNELS 3 Zrotation Yrotation Xrotation
		JOINT LeftUpLeg
		{
			OFFSET 0.042997 -0.055748 0.027915 
			CHANNELS 3 Zrotation Yrotation Xrotation
			JOINT LeftLeg
			{
				OFFSET 0.077477 -0.212868 0.000000 
				CHANNELS 3 Zrotation Yrotation Xrotation
				JOINT LeftFoot
				{
					OFFSET 0.082295 -0.226105 0.000000 
					CHANNELS 3 Zrotation Yrotation Xrotation
					JOINT LeftToeBase
					{
						OFFSET 0.007481 -0.020552 0.070941 
						CHANNELS 3 Zrotation Yrotation Xrotation
						End Site
						{
							OFFSET 0.000000 -0.000000 0.036988 
						}
					}
				}
			}
		}
	}
	JOINT RHipJoint
	{
		OFFSET 0.000000 0.000000 0.000000 
		CHANNELS 3 Zrotation Yrotation Xrotation
		JOINT RightUpLeg
		{
			OFFSET -0.041755 -0.055748 0.027915 
			CHANNELS 3 Zrotation Yrotation Xrotation
			JOINT RightLeg
			{
				OFFSET -0.080288 -0.220590 0.000000 
				CHANNELS 3 Zrotation Yrotation Xrotation
				JOINT RightFoot
				{
					OFFSET -0.080178 -0.220286 0.000000 
					CHANNELS 3 Zrotation Yrotation Xrotation
					JOINT RightToeBase
					{
						OFFSET -0.008604 -0.023639 0.068158 
						CHANNELS 3 Zrotation Yrotation Xrotation
						End Site
						{
							OFFSET -0.000000 -0.000000 0.036010 
						}
					}
				}
			}
		}
	}
	JOINT LowerBack
	{
		OFFSET 0.000000 0.000000 0.000000 
		CHANNELS 3 Zrotation Yrotation Xrotation
		JOINT Spine
		{
			OFFSET 0.001934 0.067235 -0.000292 
			CHANNELS 3 Zrotation Yrotation Xrotation
			JOINT Spine1
			{
				OFFSET 0.001979 0.067291 0.000273 
				CHANNELS 3 Zrotation Yrotation Xrotation
				JOINT Neck
				{
					OFFSET 0.000000 0.000000 0.000000 
					CHANNELS 3 Zrotation Yrotation Xrotation
					JOINT Neck1
					{
						OFFSET -0.001313 0.052159 0.007351 
						CHANNELS 3 Zrotation Yrotation Xrotation
						JOINT Head
						{
							OFFSET 0.002347 0.052924 -0.007637 
							CHANNELS 3 Zrotation Yrotation Xrotation
							End Site
							{
								OFFSET 0.000799 0.053662 -0.003437 
							}
						}
					}
				}
				JOINT LeftShoulder
				{
					OFFSET 0.000000 0.000000 0.000000 
					CHANNELS 3 Zrotation Yrotation Xrotation
					JOINT LeftArm
					{
						OFFSET 0.114740 0.039471 -0.012919 
						CHANNELS 3 Zrotation Yrotation Xrotation
						JOINT LeftForeArm
						{
							OFFSET 0.146409 -0.000000 -0.000000 
							CHANNELS 3 Zrotation Yrotation Xrotation
							JOINT LeftHand
							{
								OFFSET 0.106133 -0.000000 -0.000000 
								CHANNELS 3 Zrotation Yrotation Xrotation
								JOINT LeftFingerBase
								{
									OFFSET 0.000000 0.000000 0.000000 
									CHANNELS 3 Zrotation Yrotation Xrotation
									JOINT LeftHandIndex1
									{
										OFFSET 0.015190 -0.000000 -0.000000 
										CHANNELS 3 Zrotation Yrotation Xrotation
										End Site
										{
											OFFSET 0.012247 -0.000000 -0.000000 
										}
									}
								}
								JOINT LThumb
								{
									OFFSET 0.000000 0.000000 0.000000 
									CHANNELS 3 Zrotation Yrotation Xrotation
									End Site
									{
										OFFSET 0.012433 -0.000000 0.012433 
									}
								}
							}
						}
					}
				}
				JOINT RightShoulder
				{
					OFFSET 0.000000 0.000000 0.000000 
					CHANNELS 3 Zrotation Yrotation Xrotation
					JOINT RightArm
					{
						OFFSET -0.095042 0.044685 -0.023872 
						CHANNELS 3 Zrotation Yrotation Xrotation
						JOINT RightForeArm
						{
							OFFSET -0.173617 -0.000000 -0.000000 
							CHANNELS 3 Zrotation Yrotation Xrotation
							JOINT RightHand
							{
								OFFSET -0.103992 -0.000000 -0.000000 
								CHANNELS 3 Zrotation Yrotation Xrotation
								JOINT RightFingerBase
								{
									OFFSET 0.000000 0.000000 0.000000 
									CHANNELS 3 Zrotation Yrotation Xrotation
									JOINT RightHandIndex1
									{
										OFFSET -0.015863 -0.000000 -0.000000 
										CHANNELS 3 Zrotation Yrotation Xrotation
										End Site
										{
											OFFSET -0.012789 -0.000000 -0.000000 
										}
									}
								}
								JOINT RThumb
								{
									OFFSET 0.000000 0.000000 0.000000 
									CHANNELS 3 Zrotation Yrotation Xrotation
									End Site
									{
										OFFSET -0.012985 -0.000000 0.012985 
									}
								}
							}
						}
					}
				}
			}
		}
	}
}
MOTION
Frames: 10
Frame Time: 0.008333
0.002650 0.557873 -0.010590 0.000000 0.000000 0.000000 0.000000 0.000000 0.000000 -12.197300 -7.018900 -6.235400 0.278200 3.392200 9.372700 0.221400 1.818300 -9.747400 0.044900 1.367200 3.759800 0.000000 0.000000 0.000000 26.718201 6.167400 -9.015100 -0.485900 -4.469900 12.402600 0.106400 -9.940300 -12.232900 -0.635400 -5.100000 14.194100 4.194100 -1.112700 -6.039900 3.335400 -1.856400 -3.376600 0.974200 -1.016800 -0.116000 -10.556800 -8.515700 -18.667400 9.737300 -10.763100 14.974900 3.537600 -4.755000 8.867600 -0.000000 0.000000 0.000000 -92.056198 2.096600 54.526501 38.885300 -47.395401 -17.614300 -0.000000 0.000000 -18.435301 5.961000 33.949902 3.337300 -7.125000 0.000000 -0.000000 -31.539200 61.241299 -13.209800 -0.000000 0.000000 0.000000 83.484001 2.423100 56.526798 -39.948799 48.039501 -18.401100 0.000000 -0.000000 -25.018299 24.090799 -37.064400 -15.082300 7.125000 -0.000000 -0.000000 62.006901 -56.471500 -23.511299 
0.002722 0.557874 -0.010568 0.000000 0.000000 0.000000 0.000000 0.000000 0.000000 -12.199800 -7.025100 -6.254500 0.278400 3.393900 9.377300 0.220900 1.834900 -9.747900 0.044600 1.363600 3.749900 0.000000 0.000000 0.000000 26.711901 6.179800 -9.041500 -0.487200 -4.475800 12.419200 0.105600 -9.927200 -12.227000 -0.636800 -5.105400 14.209500 4.197100 -1.152100 -6.019000 3.350600 -1.907400 -3.406100 0.986500 -1.043600 -0.158300 -10.642200 -8.526300 -18.495199 9.741200 -10.773700 14.970700 3.555500 -4.770300 8.842300 -0.000000 0.000000 0.000000 -92.078102 2.201600 54.574600 38.945801 -47.432800 -17.658800 -0.000000 0.000000 -18.403700 6.010900 34.012699 3.370800 -7.125000 0.000000 -0.000000 -31.553499 61.306198 -13.265400 -0.000000 0.000000 0.000000 83.395798 2.337900 56.593800 -39.944500 48.036999 -18.398001 0.000000 -0.000000 -25.143299 24.247700 -37.086102 -15.195500 7.125000 -0.000000 -0.000000 62.156200 -56.449200 -23.568100 
0.002791 0.557875 -0.010548 0.000000 0.000000 0.000000 0.000000 0.000000 0.000000 -12.201700 -7.030200 -6.272800 0.278600 3.395100 9.380800 0.220400 1.852500 -9.747800 0.044300 1.359000 3.737200 0.000000 0.000000 0.000000 26.706400 6.192800 -9.067400 -0.488500 -4.481700 12.436000 0.104900 -9.914100 -12.220600 -0.637900 -5.109800 14.222100 4.199400 -1.191100 -5.997100 3.365700 -1.957900 -3.434900 0.999200 -1.070000 -0.200400 -10.723100 -8.534700 -18.333200 9.741300 -10.781500 14.972100 3.571600 -4.784000 8.819900 0.000000 -0.000000 0.000000 -92.103401 2.299500 54.619099 39.000801 -47.466599 -17.699400 -0.000000 0.000000 -18.370501 6.055500 34.077599 3.401700 -7.125000 0.000000 -0.000000 -31.575500 61.371498 -13.324900 0.000000 -0.000000 0.000000 83.311501 2.258100 56.662701 -39.938400 48.033298 -18.393400 0.000000 -0.000000 -25.240601 24.722500 -37.059200 -15.507700 7.125000 -0.000000 -0.000000 62.496498 -56.327702 -23.581301 
0.002860 0.557872 -0.010529 0.000000 0.000000 0.000000 0.000000 0.000000 0.000000 -12.203300 -7.035300 -6.289500 0.278800 3.396000 9.383400 0.219900 1.870400 -9.748500 0.044100 1.355200 3.726600 0.000000 0.000000 0.000000 26.701500 6.205500 -9.093300 -0.489900 -4.487900 12.453500 0.104000 -9.899900 -12.214400 -0.639100 -5.114600 14.235700 4.198700 -1.230200 -5.966700 3.382500 -2.007500 -3.469200 1.015700 -1.096300 -0.252800 -10.802100 -8.540600 -18.175501 9.736200 -10.786000 14.983000 3.586000 -4.796300 8.800700 -0.000000 0.000000 0.000000 -92.134697 2.400300 54.658298 39.050098 -47.497002 -17.735701 -0.000000 0.000000 -18.334499 6.101600 34.125301 3.431900 -7.125000 0.000000 -0.000000 -31.578699 61.423000 -13.365100 -0.000000 0.000000 0.000000 83.229202 2.173400 56.730801 -39.931599 48.029301 -18.388300 0.000000 -0.000000 -25.311001 24.743299 -37.042801 -15.516300 7.125000 -0.000000 -0.000000 62.493099 -56.313400 -23.555599 
0.002926 0.557873 -0.010510 0.000000 0.000000 0.000000 0.000000 0.000000 0.000000 -12.204900 -7.040900 -6.305500 0.278900 3.397000 9.385900 0.219400 1.889400 -9.750200 0.044000 1.354500 3.724900 0.000000 0.000000 0.000000 26.696600 6.219200 -9.119000 -0.491300 -4.494200 12.471300 0.103200 -9.886300 -12.207900 -0.640200 -5.118800 14.247600 4.196100 -1.268600 -5.934400 3.399300 -2.056000 -3.504000 1.033600 -1.122000 -0.306600 -10.877000 -8.545200 -18.027000 9.726400 -10.788700 15.000300 3.598300 -4.807700 8.784500 0.000000 -0.000000 0.000000 -92.168800 2.495000 54.694000 39.092800 -47.523102 -17.767200 -0.000000 0.000000 -18.296400 6.135800 34.184299 3.456500 -7.125000 0.000000 -0.000000 -31.605600 61.480999 -13.421400 0.000000 -0.000000 0.000000 83.150902 2.091700 56.795799 -39.925499 48.025700 -18.383801 0.000000 -0.000000 -25.364000 24.746201 -37.020302 -15.510600 7.125000 -0.000000 -0.000000 62.468601 -56.299599 -23.517300 
0.002989 0.557871 -0.010491 0.000000 0.000000 0.000000 0.000000 0.000000 0.000000 -12.206500 -7.045700 -6.320800 0.279000 3.397300 9.387000 0.218800 1.909900 -9.750000 0.043900 1.352200 3.718400 0.000000 0.000000 0.000000 26.692200 6.232300 -9.144500 -0.492700 -4.500500 12.489200 0.102300 -9.872000 -12.201600 -0.641100 -5.122500 14.258400 4.191500 -1.306500 -5.898800 3.416800 -2.103500 -3.539900 1.053500 -1.147200 -0.363200 -10.948500 -8.548100 -17.888201 9.712900 -10.789000 15.024800 3.608800 -4.817700 8.771800 -0.000000 0.000000 0.000000 -92.206497 2.584800 54.726101 39.129398 -47.545601 -17.794201 -0.000000 0.000000 -18.257000 6.164800 34.241199 3.477900 -7.125000 0.000000 -0.000000 -31.635599 61.535702 -13.476900 -0.000000 0.000000 0.000000 83.075897 2.012400 56.857300 -39.920799 48.022900 -18.380400 0.000000 -0.000000 -25.404499 24.724199 -36.986599 -15.484100 7.125000 -0.000000 -0.000000 62.411201 -56.284698 -23.456800 
0.003052 0.557869 -0.010474 0.000000 0.000000 0.000000 0.000000 0.000000 0.000000 -12.207700 -7.050600 -6.334900 0.279000 3.397500 9.387400 0.218300 1.930300 -9.751600 0.043700 1.349800 3.711900 0.000000 0.000000 0.000000 26.688200 6.246200 -9.169700 -0.494200 -4.507000 12.507700 0.101500 -9.857700 -12.195500 -0.642100 -5.126500 14.269800 4.186300 -1.344100 -5.866200 3.433900 -2.150900 -3.573800 1.073300 -1.172200 -0.416000 -11.016700 -8.549100 -17.756599 9.698000 -10.787100 15.052100 3.618600 -4.826400 8.760700 -0.000000 0.000000 0.000000 -92.246002 2.666000 54.752701 39.159901 -47.564201 -17.816700 -0.000000 0.000000 -18.217400 6.190700 34.300999 3.498000 -7.125000 0.000000 -0.000000 -31.672300 61.592300 -13.537000 -0.000000 0.000000 0.000000 83.006401 1.939600 56.915901 -39.917301 48.020802 -18.377701 0.000000 -0.000000 -25.428200 24.692801 -36.958401 -15.453200 7.125000 -0.000000 -0.000000 62.353001 -56.275200 -23.404600 
0.003108 0.557866 -0.010458 0.000000 0.000000 0.000000 0.000000 0.000000 0.000000 -12.208600 -7.055200 -6.348500 0.279000 3.397500 9.387500 0.217800 1.950700 -9.754000 0.043600 1.347900 3.706500 0.000000 0.000000 0.000000 26.684799 6.259600 -9.194800 -0.495600 -4.513400 12.525600 0.100600 -9.842800 -12.188700 -0.643100 -5.130100 14.280100 4.181200 -1.381000 -5.836800 3.449800 -2.197500 -3.604800 1.091800 -1.196700 -0.464100 -11.081000 -8.548300 -17.635700 9.682100 -10.783000 15.084900 3.627400 -4.833600 8.752900 -0.000000 0.000000 0.000000 -92.286301 2.736500 54.776402 39.183899 -47.578899 -17.834400 -0.000000 0.000000 -18.177700 6.212900 34.354801 3.515400 -7.125000 0.000000 -0.000000 -31.706400 61.642899 -13.591300 -0.000000 0.000000 0.000000 82.943497 1.874800 56.971802 -39.911900 48.017601 -18.373699 0.000000 -0.000000 -25.436800 24.620199 -36.916199 -15.389800 7.125000 -0.000000 -0.000000 62.245998 -56.266399 -23.323400 
0.003165 0.557864 -0.010445 0.000000 0.000000 0.000000 0.000000 0.000000 0.000000 -12.209200 -7.059500 -6.361000 0.279000 3.397400 9.387200 0.217300 1.971100 -9.757200 0.043500 1.346200 3.701900 0.000000 0.000000 0.000000 26.681801 6.272700 -9.219300 -0.497000 -4.519700 12.543500 0.099600 -9.827000 -12.181800 -0.644100 -5.134300 14.292100 4.175900 -1.417200 -5.810400 3.464800 -2.243400 -3.633300 1.109400 -1.220700 -0.507900 -11.139800 -8.547100 -17.524799 9.663100 -10.778500 15.121600 3.634100 -4.840200 8.747500 0.000000 -0.000000 0.000000 -92.326103 2.797800 54.796299 39.202202 -47.590099 -17.847900 -0.000000 0.000000 -18.138000 6.232500 34.407902 3.531300 -7.125000 0.000000 -0.000000 -31.742701 61.692101 -13.645900 0.000000 -0.000000 0.000000 82.887001 1.816000 57.022701 -39.907299 48.014900 -18.370300 0.000000 -0.000000 -25.430901 24.530100 -36.871899 -15.313900 7.125000 -0.000000 -0.000000 62.122799 -56.260300 -23.236799 
0.003215 0.557859 -0.010429 0.000000 0.000000 0.000000 0.000000 0.000000 0.000000 -12.209300 -7.063400 -6.372800 0.279000 3.397000 9.386100 0.216700 1.993600 -9.759700 0.043400 1.344600 3.697500 0.000000 0.000000 0.000000 26.679501 6.285700 -9.243400 -0.498400 -4.525900 12.561200 0.098700 -9.811300 -12.174400 -0.644900 -5.137300 14.300700 4.170800 -1.451900 -5.784300 3.478700 -2.287500 -3.659100 1.125800 -1.243800 -0.548900 -11.194500 -8.546000 -17.427299 9.643200 -10.774200 15.163700 3.639400 -4.846400 8.746100 -0.000000 0.000000 0.000000 -92.366600 2.848600 54.814999 39.214901 -47.597801 -17.857300 -0.000000 0.000000 -18.099100 6.247100 34.455101 3.543900 -7.125000 0.000000 -0.000000 -31.777800 61.735298 -13.695300 -0.000000 0.000000 0.000000 82.836899 1.764500 57.066101 -39.903400 48.012600 -18.367399 0.000000 -0.000000 -25.414000 24.430500 -36.831299 -15.233000 7.125000 -0.000000 -0.000000 61.996399 -56.258301 -23.155300 
